<?xml version="1.0" standalone="no"?>
<!DOCTYPE svg PUBLIC "-//W3C//DTD SVG 1.1//EN" "http://www.w3.org/Graphics/SVG/1.1/DTD/svg11.dtd" >
<svg xmlns="http://www.w3.org/2000/svg">
<metadata>
This is a custom SVG webfont generated by Font Squirrel.
Designer    : M__rten Nettelbladt
Foundry     : M__rten Nettelbladt
</metadata>
<defs>
<font id="webfontA4ZOCCxS" horiz-adv-x="416" >
<font-face units-per-em="1000" ascent="800" descent="-200" />
<missing-glyph horiz-adv-x="192" />
<glyph unicode=" "  horiz-adv-x="192" />
<glyph unicode="&#x09;" horiz-adv-x="192" />
<glyph unicode="&#xa0;" horiz-adv-x="192" />
<glyph unicode="!" horiz-adv-x="200" d="M58 38q0 17 12.5 29.5t29.5 12.5t29.5 -12.5t12.5 -29.5t-12.5 -29.5t-29.5 -12.5t-29.5 12.5t-12.5 29.5zM68 588q0 14 9.5 23t22.5 9q14 0 23 -9t9 -23v-400q0 -14 -9 -23t-23 -9q-13 0 -22.5 9t-9.5 23v400z" />
<glyph unicode="&#x22;" horiz-adv-x="352" d="M256 640q14 0 23 -9t9 -23v-100q0 -14 -9 -23t-23 -9t-23 9t-9 23v100q0 14 9 23t23 9zM64 608q0 14 9 23t23 9t23 -9t9 -23v-100q0 -14 -9 -23t-23 -9t-23 9t-9 23v100z" />
<glyph unicode="#" horiz-adv-x="458" d="M340 377v-99h69q13 0 22 -8.5t9 -21.5t-9 -22t-22 -9h-69v-189q0 -13 -9 -22t-22 -9t-21.5 9t-8.5 22v189h-99v-189q0 -13 -9 -22t-22 -9t-21.5 9t-8.5 22v189h-70q-13 0 -21.5 9t-8.5 22t8.5 21.5t21.5 8.5h70v99h-70q-13 0 -21.5 9t-8.5 22t8.5 21.5t21.5 8.5h70v170 q0 13 8.5 21.5t21.5 8.5t22 -8.5t9 -21.5v-170h99v170q0 13 8.5 21.5t21.5 8.5t22 -8.5t9 -21.5v-170h69q13 0 22 -8.5t9 -21.5t-9 -22t-22 -9h-69zM279 377h-99v-99h99v99z" />
<glyph unicode="$" d="M293 295q52 -40 54 -112q0 -68 -52 -112q-24 -21 -62 -32v-51q0 -14 -9.5 -23t-22.5 -9q-14 0 -23 9t-9 23v52q-62 12 -95 69q-7 11 -3 24t15 20q11 6 24 2.5t20 -14.5q19 -34 57 -40q2 -1 6 -1h7h1q30 0 53 20q29 24 29 63q-2 39 -31 62l-125 103q-52 43 -52 108 q-2 68 50 110q25 22 60 30v52q0 14 9 23t23 9q13 0 22.5 -9t9.5 -23v-52q61 -14 91 -67q6 -11 2.5 -24t-14.5 -20t-24 -3t-20 15q-17 32 -54 38q-2 1 -7 1h-6h-1q-28 0 -50 -19q-28 -24 -27 -60q0 -37 28 -59z" />
<glyph unicode="%" horiz-adv-x="593" d="M437 237q49 0 84 -35t35 -84t-35 -84t-84 -35t-84 34.5t-35 84.5q0 49 35 84t84 35zM437 57q26 0 43.5 17.5t17.5 43.5t-17.5 43.5t-43.5 17.5t-43.5 -17.5t-17.5 -43.5t17.5 -43.5t43.5 -17.5zM276 518q0 -49 -35 -84t-84 -35t-84 34.5t-35 84.5q0 49 35 84t84 35 t84 -35t35 -84zM96 518q0 -26 17.5 -43.5t43.5 -17.5t43.5 17.5t17.5 43.5t-17.5 43.5t-43.5 17.5t-43.5 -17.5t-17.5 -43.5zM451 637q12 -6 16 -18.5t-1 -24.5l-280 -580q-6 -12 -18.5 -16.5t-24.5 1.5t-16.5 18.5t1.5 24.5l280 580q6 12 18.5 16t24.5 -1z" />
<glyph unicode="&#x26;" horiz-adv-x="493" d="M349 100l-18 -30q-33 -54 -98 -71q-62 -14 -118 23q-55 38 -65 102t30 117l80 104l-68 88l-1 1v1h-1v1q-20 31 -21.5 67.5t16.5 68.5q18 33 50 51.5t70 16.5q82 -5 115 -76q34 -73 -15 -137l-64 -82l76 -99l25 -33l31 51q7 12 20 15t24 -4t14.5 -19.5t-3.5 -24.5l-44 -72 l79 -101q19 -26 -6 -45q-11 -8 -24 -7t-21 12zM201 397l53 69q26 34 8 71t-59 39t-62 -35q-19 -36 2 -70zM307 154l-41 53l-65 85l-70 -90q-23 -32 -17 -68q4 -34 37 -59q30 -21 68 -13q36 7 57 41z" />
<glyph unicode="'" horiz-adv-x="192" d="M128 508q0 -14 -9.5 -23t-22.5 -9q-14 0 -23 9t-9 23v100q0 14 9 23t23 9q13 0 22.5 -9t9.5 -23v-100z" />
<glyph unicode="(" horiz-adv-x="268" d="M241 668q-59 -75 -91 -167q-30 -89 -30 -183t30 -183q32 -92 91 -167q19 -26 -6 -45q-11 -8 -24 -7t-21 12q-67 84 -100 186q-34 96 -34 204t34 204q34 100 100 186q8 11 21 12t24 -7q25 -19 6 -45z" />
<glyph unicode=")" horiz-adv-x="269" d="M212 328q0 -108 -34 -204q-34 -101 -101 -186q-8 -11 -21 -12t-24 7q-23 20 -5 45q59 75 91 167q30 89 30 183t-30 183q-32 92 -91 167q-18 25 5 45q11 8 24 7t21 -12q66 -85 101 -186q34 -96 34 -204z" />
<glyph unicode="*" d="M239 405v-97q0 -13 -9 -22t-22 -9t-21.5 9t-8.5 22v97l-85 -48q-11 -7 -23 -3.5t-18 14.5q-7 11 -3.5 23t14.5 18l84 49l-84 49q-11 6 -14.5 18t3.5 23q6 11 18 14.5t23 -3.5l85 -48v97q0 13 8.5 21.5t21.5 8.5t22 -8.5t9 -21.5v-97l84 48q11 7 23 3.5t18 -14.5 q7 -11 3.5 -23t-14.5 -18l-84 -49l84 -49q11 -6 14.5 -18t-3.5 -23q-6 -11 -18 -14.5t-23 3.5z" />
<glyph unicode="+" d="M328 320q13 0 22.5 -9t9.5 -23t-9.5 -23t-22.5 -9h-88v-88q0 -14 -9.5 -23t-22.5 -9q-14 0 -23 9t-9 23v88h-88q-14 0 -23 9t-9 23t9 23t23 9h88v88q0 14 9 23t23 9q13 0 22.5 -9t9.5 -23v-88h88z" />
<glyph unicode="," horiz-adv-x="192" d="M68 -20q14 5 14 20v17h-2q-13 0 -21.5 9t-8.5 22t8.5 21.5t21.5 8.5h32q13 0 22 -8.5t9 -21.5v-48q0 -25 -14 -45.5t-37 -30.5q-12 -5 -23.5 -0.5t-16.5 16.5t-0.5 23.5t16.5 16.5z" />
<glyph unicode="-" d="M360 288q0 -14 -9.5 -23t-22.5 -9h-240q-14 0 -23 9t-9 23t9 23t23 9h240q13 0 22.5 -9t9.5 -23z" />
<glyph unicode="." horiz-adv-x="192" d="M54 38q0 17 12.5 29.5t29.5 12.5t29.5 -12.5t12.5 -29.5t-12.5 -29.5t-29.5 -12.5t-29.5 12.5t-12.5 29.5z" />
<glyph unicode="/" d="M339 678q13 -5 18.5 -16.5t0.5 -24.5l-240 -660q-5 -13 -16.5 -18.5t-24.5 -0.5q-12 5 -18 17t-1 24l240 660q5 12 17 18t24 1z" />
<glyph unicode="0" d="M208 -4q-63 0 -107.5 44.5t-44.5 107.5v340q0 63 44.5 107.5t107.5 44.5q62 0 107 -44.5t45 -107.5v-340q0 -63 -45 -107.5t-107 -44.5zM208 576q-37 0 -62.5 -26t-25.5 -62v-340q0 -37 25.5 -62.5t62.5 -25.5q36 0 62 25.5t26 62.5v340q0 36 -26 62t-62 26z" />
<glyph unicode="1" d="M134 465q-9 -9 -22 -9q-12 0 -23 9q-9 11 -9 23t9 23l120 120q14 14 35 7q20 -8 20 -30v-580q0 -14 -9.5 -23t-22.5 -9q-14 0 -23 9t-9 23v503z" />
<glyph unicode="2" d="M76 520q-11 7 -15 20t3 24q31 55 91 70q59 17 114 -13t72 -89q18 -59 -11 -115l-78 -149l-107 -204h171q13 0 22.5 -9t9.5 -23t-9.5 -23t-22.5 -9h-224q-20 0 -27 15q-10 16 -1 32l210 400q16 31 6 66q-11 36 -42 52q-32 17 -66 8q-35 -11 -52 -41q-7 -11 -20 -15t-24 3z " />
<glyph unicode="3" d="M205 63q29 8 47 31.5t18 53.5v60q0 36 -26 62t-62 26q-14 0 -23 9t-9 23t9 23t23 9q36 0 62 25.5t26 62.5v40q0 30 -18 53.5t-47 31.5t-56.5 -3.5t-42.5 -37.5q-7 -11 -20 -15t-24 3t-15 20t3 24q27 45 74 65t97 6q51 -14 82 -54.5t31 -92.5v-40q0 -74 -59 -120 q59 -46 59 -120v-60q0 -52 -31 -92.5t-82 -54.5q-50 -14 -98 6t-73 65q-7 11 -3 24t15 20q11 6 24 2.5t20 -14.5q15 -26 42.5 -37.5t56.5 -3.5z" />
<glyph unicode="4" d="M74 136q-16 0 -26 13q-10 12 -5 29l140 440q6 13 17.5 19t23.5 1q22 -7 22 -30q0 -6 -2 -10l-55 -174l-71 -224h124v108q0 14 9 23t23 9t23 -9t9 -23v-108h48q14 0 23 -9t9 -23t-9 -23t-23 -9h-48v-108q0 -14 -9 -23t-23 -9t-23 9t-9 23v108h-168z" />
<glyph unicode="5" d="M95 287q-24 6 -24 31v286q0 14 9 23t23 9h208q14 0 23 -9t9 -23t-9 -23t-23 -9h-176v-180q52 28 111 13q51 -14 82 -54.5t31 -92.5v-110q0 -52 -31 -92.5t-82 -54.5q-50 -14 -98 6t-73 65q-6 11 -2.5 24t14.5 20q11 6 24 2.5t20 -14.5q15 -26 42.5 -37.5t56.5 -3.5 t47 31.5t18 53.5v110q0 30 -18 53.5t-47 31.5t-56.5 -3.5t-42.5 -37.5q-12 -22 -36 -15z" />
<glyph unicode="6" d="M217 -4q-63 0 -107.5 44.5t-44.5 107.5v340q0 52 31.5 92.5t81.5 54.5t97 -6t74 -65q7 -11 3 -24t-15 -20t-24 -3t-20 15q-14 26 -42 37.5t-57 3.5t-47 -31.5t-18 -53.5v-116q38 28 88 28q63 0 107.5 -44.5t44.5 -107.5v-100q0 -63 -44.5 -107.5t-107.5 -44.5zM217 336 q-36 0 -62 -26t-26 -62v-100q0 -37 26 -62.5t62 -25.5q37 0 62.5 25.5t25.5 62.5v100q0 36 -25.5 62t-62.5 26z" />
<glyph unicode="7" d="M85 492q-13 0 -22.5 9t-9.5 23v80q0 14 9.5 23t22.5 9h240q15 0 25 -12q11 -14 6 -28l-140 -576q-3 -13 -14 -19.5t-24 -3.5q-25 5 -25 31q0 2 0.5 4t0.5 4l59 242q45 175 72 294h-168v-48q0 -14 -9 -23t-23 -9z" />
<glyph unicode="8" d="M208 -4q-62 0 -107 44.5t-45 107.5v60q0 74 59 120q-59 46 -59 120v40q0 63 45 107.5t107 44.5q63 0 107.5 -44.5t44.5 -107.5v-40q0 -74 -58 -120q58 -46 58 -120v-60q0 -63 -44.5 -107.5t-107.5 -44.5zM120 448q0 -37 26 -62.5t62 -25.5q37 0 62.5 25.5t25.5 62.5v40 q0 36 -25.5 62t-62.5 26q-36 0 -62 -26t-26 -62v-40zM296 208q0 36 -25.5 62t-62.5 26q-36 0 -62 -26t-26 -62v-60q0 -37 26 -62.5t62 -25.5q37 0 62.5 25.5t25.5 62.5v60z" />
<glyph unicode="9" d="M199 236q-62 0 -107 44.5t-45 107.5v100q0 63 45 107.5t107 44.5q63 0 107.5 -44.5t44.5 -107.5v-340q0 -52 -31 -92.5t-81 -54.5q-51 -14 -98 6t-73 65q-7 11 -3.5 24t14.5 20q28 14 44 -12q15 -26 42.5 -37.5t56.5 -3.5t47 31.5t18 53.5v116q-37 -28 -88 -28zM199 576 q-36 0 -62 -26t-26 -62v-100q0 -37 26 -62.5t62 -25.5q37 0 62.5 25.5t25.5 62.5v100q0 36 -25.5 62t-62.5 26z" />
<glyph unicode=":" horiz-adv-x="192" d="M138 38q0 -17 -12 -29.5t-30 -12.5q-17 0 -29.5 12.5t-12.5 29.5t12.5 29.5t29.5 12.5q18 0 30 -12.5t12 -29.5zM96 460q18 0 30 -12.5t12 -29.5t-12 -29.5t-30 -12.5q-17 0 -29.5 12.5t-12.5 29.5t12.5 29.5t29.5 12.5z" />
<glyph unicode=";" horiz-adv-x="192" d="M54 418q0 17 12.5 29.5t29.5 12.5t29.5 -12.5t12.5 -29.5t-12.5 -29.5t-29.5 -12.5t-29.5 12.5t-12.5 29.5zM68 -20q14 5 14 20v17h-2q-13 0 -21.5 9t-8.5 22t8.5 21.5t21.5 8.5h32q13 0 22 -8.5t9 -21.5v-48q0 -25 -14 -45.5t-37 -30.5q-12 -5 -23.5 -0.5t-16.5 16.5 t-0.5 23.5t16.5 16.5z" />
<glyph unicode="&#x3c;" d="M344 67q-8 -10 -21 -11t-24 7l-240 200q-11 9 -11 25q0 14 11 25l240 200q11 8 24 7t21 -12t8 -20q0 -14 -12 -25l-88 -73l-122 -102l122 -102l88 -73q12 -11 12 -25q0 -10 -8 -21z" />
<glyph unicode="=" d="M328 240q14 0 23 -9t9 -23t-9 -23t-23 -9h-240q-13 0 -22.5 9t-9.5 23t9.5 23t22.5 9h240zM328 400q14 0 23 -9t9 -23t-9 -23t-23 -9h-240q-13 0 -22.5 9t-9.5 23t9.5 23t22.5 9h240z" />
<glyph unicode="&#x3e;" d="M64 88q0 14 11 25l89 73l61 52l61 50l-61 50l-61 52l-89 73q-11 11 -11 25q0 13 7 20q9 11 22 12t23 -7l240 -200q12 -11 12 -25q0 -16 -12 -25l-240 -200q-10 -8 -23 -7t-22 11q-7 7 -7 21z" />
<glyph unicode="?" horiz-adv-x="357" d="M122 38q0 17 12.5 29.5t29.5 12.5t29.5 -12.5t12.5 -29.5t-12.5 -29.5t-29.5 -12.5t-29.5 12.5t-12.5 29.5zM218 558q-31 24 -71 16t-59 -42q-7 -11 -19.5 -15t-24.5 3q-11 7 -14.5 20t3.5 24q35 59 101 73q67 14 122 -28q55 -43 60 -110q5 -69 -44 -118l-50 -51 q-26 -26 -26 -62v-80q0 -14 -9 -23t-23 -9q-13 0 -22.5 9t-9.5 23v80q0 61 44 107l51 51q28 28 25 68q-5 42 -34 64z" />
<glyph unicode="@" horiz-adv-x="764" d="M609 544q93 -95 93 -226v-186q0 -54 -38 -92t-92 -38h-200q-53 0 -91.5 38t-38.5 92q0 53 38.5 91.5t91.5 38.5h70v68q0 44 -43 62t-76 -15q-10 -8 -22 -8t-21 9q-8 10 -8 21q0 13 9 21q28 28 66 35t74 -7q37 -14 59 -46.5t22 -71.5v-268h70q29 0 49.5 20.5t20.5 49.5 v186q0 107 -76 183q-74 77 -184 77q-109 0 -183 -77q-77 -74 -77 -183v-180q0 -110 77 -184q76 -76 183 -76h110q13 0 21.5 -9t8.5 -21q0 -13 -8.5 -21.5t-21.5 -8.5h-110q-131 0 -226 93q-94 96 -94 227v180q0 130 94 226q96 94 226 94q131 0 227 -94zM302 132 q0 -29 20.5 -49.5t49.5 -20.5h70v140h-70q-29 0 -49.5 -20.5t-20.5 -49.5z" />
<glyph unicode="A" horiz-adv-x="432" d="M407 36q4 -13 -2.5 -24t-20.5 -15q-13 -4 -24 2.5t-15 19.5q-5 15 -9 33q-6 18 -23 84h-194q-6 -18 -13 -46t-10 -38q-4 -18 -9 -33q-9 -30 -40 -22q-13 4 -19.5 15t-2.5 24l160 580q6 24 31 24t31 -24zM295 200l-79 288q-7 -24 -79 -288h158z" />
<glyph unicode="B" horiz-adv-x="428" d="M68 604q0 14 9 23t23 9h120q63 0 107.5 -44.5t44.5 -107.5v-36q0 -74 -59 -120q59 -46 59 -120v-56q0 -63 -44.5 -107.5t-107.5 -44.5h-120q-14 0 -23 9t-9 23v572zM308 208q0 36 -26 62t-62 26h-88v-232h88q36 0 62 25.5t26 62.5v56zM308 484q0 36 -26 62t-62 26h-88 v-212h88q36 0 62 25.5t26 62.5v36z" />
<glyph unicode="C" horiz-adv-x="385" d="M169 1q-51 14 -82 54.5t-31 92.5v340q0 52 31 92.5t82 54.5q50 14 97 -6t74 -65q6 -11 2.5 -24t-14.5 -20t-24 -3t-20 15q-15 26 -42.5 37.5t-56.5 3.5t-47 -31.5t-18 -53.5v-340q0 -30 18 -53.5t47 -31.5t56.5 3.5t42.5 37.5q7 11 20 14.5t24 -2.5q11 -7 14.5 -20 t-2.5 -24q-25 -45 -73 -65t-98 -6z" />
<glyph unicode="D" horiz-adv-x="428" d="M220 636q63 0 107.5 -44.5t44.5 -107.5v-332q0 -63 -44.5 -107.5t-107.5 -44.5h-120q-14 0 -23 9t-9 23v572q0 14 9 23t23 9h120zM308 484q0 36 -25.5 62t-62.5 26h-88v-508h88q37 0 62.5 25.5t25.5 62.5v332z" />
<glyph unicode="E" horiz-adv-x="368" d="M68 604q0 14 9 23t23 9h200q14 0 23 -9t9 -23t-9 -23t-23 -9h-168v-212h148q14 0 23 -9t9 -23t-9 -23t-23 -9h-148v-232h168q14 0 23 -9t9 -23t-9 -23t-23 -9h-200q-14 0 -23 9t-9 23v572z" />
<glyph unicode="F" horiz-adv-x="360" d="M100 0q-13 0 -22.5 9t-9.5 23v572q0 14 9.5 23t22.5 9h200q14 0 23 -9t9 -23t-9 -23t-23 -9h-168v-212h148q14 0 23 -9t9 -23t-9 -23t-23 -9h-148v-264q0 -14 -9 -23t-23 -9z" />
<glyph unicode="G" horiz-adv-x="412" d="M56 488q0 52 31.5 92.5t81.5 54.5t97 -6t74 -65q7 -11 3.5 -24t-15.5 -20q-11 -7 -24 -3t-20 15q-14 26 -41.5 37.5t-56.5 3.5t-47.5 -31.5t-18.5 -53.5v-340q0 -37 26 -62.5t62 -25.5q37 0 62.5 25.5t25.5 62.5v128h-68q-13 0 -22.5 9t-9.5 23t9.5 23t22.5 9h100 q14 0 23 -9t9 -23v-160q0 -63 -44.5 -107.5t-107.5 -44.5t-107.5 44.5t-44.5 107.5v340z" />
<glyph unicode="H" horiz-adv-x="440" d="M308 608q0 14 9.5 23t22.5 9q14 0 23 -9t9 -23v-580q0 -14 -9 -23t-23 -9q-13 0 -22.5 9t-9.5 23v268h-176v-268q0 -14 -9 -23t-23 -9q-13 0 -22.5 9t-9.5 23v580q0 14 9.5 23t22.5 9q14 0 23 -9t9 -23v-248h176v248z" />
<glyph unicode="I" horiz-adv-x="200" d="M100 -4q-13 0 -22.5 9t-9.5 23v580q0 14 9.5 23t22.5 9q14 0 23 -9t9 -23v-580q0 -14 -9 -23t-23 -9z" />
<glyph unicode="J" horiz-adv-x="333" d="M269 148q0 -41 -20.5 -76.5t-55.5 -55.5t-76 -20t-76 20q-12 7 -15.5 20t3.5 24t19.5 15t24.5 -3q19 -12 43 -12t45 12q44 24 44 76v460q0 14 9 23t23 9q13 0 22.5 -9t9.5 -23v-460z" />
<glyph unicode="K" horiz-adv-x="421" d="M389 42q6 -12 1.5 -24.5t-16.5 -18.5t-24.5 -1.5t-17.5 16.5l-144 297l-56 -78v-205q0 -14 -9 -23t-23 -9q-13 0 -22.5 9t-9.5 23v580q0 14 9.5 23t22.5 9q14 0 23 -9t9 -23v-265l202 284q8 11 21 13t24 -6t13 -21t-6 -24l-155 -218z" />
<glyph unicode="L" horiz-adv-x="348" d="M100 0q-14 0 -23 9t-9 23v576q0 14 9 23t23 9q13 0 22.5 -9t9.5 -23v-544h168q13 0 22.5 -9t9.5 -23t-9.5 -23t-22.5 -9h-200z" />
<glyph unicode="M" horiz-adv-x="520" d="M100 -4q-14 0 -23 9t-9 23v580q0 26 25 31q24 5 36 -17l51 -108l80 -171l80 171l51 108q12 22 36 17q25 -5 25 -31v-580q0 -14 -9.5 -23t-22.5 -9q-14 0 -23 9t-9 23v437l-67 -143l-32 -68q-11 -18 -29 -18q-22 0 -29 18l-32 68l-67 143v-437q0 -14 -9.5 -23t-22.5 -9z " />
<glyph unicode="N" horiz-adv-x="480" d="M387 -3q-23 -6 -36 17l-82 169l-137 285v-440q0 -14 -9 -23t-23 -9t-23 9t-9 23v580q0 26 25 31q24 5 36 -17l81 -169l138 -285v440q0 14 9 23t23 9t23 -9t9 -23v-580q0 -26 -25 -31z" />
<glyph unicode="O" d="M208 -4q-63 0 -107.5 44.5t-44.5 107.5v340q0 63 44.5 107.5t107.5 44.5t107.5 -44.5t44.5 -107.5v-340q0 -63 -44.5 -107.5t-107.5 -44.5zM208 576q-37 0 -62.5 -26t-25.5 -62v-340q0 -37 25.5 -62.5t62.5 -25.5q36 0 62 25.5t26 62.5v340q0 36 -26 62t-62 26z" />
<glyph unicode="P" horiz-adv-x="400" d="M68 604q0 14 9 23t23 9h120q63 0 107.5 -44.5t44.5 -107.5v-56q0 -63 -44.5 -107.5t-107.5 -44.5h-88v-248q0 -14 -9 -23t-23 -9t-23 9t-9 23v576zM308 484q0 36 -26 62t-62 26h-88v-232h88q36 0 62 25.5t26 62.5v56z" />
<glyph unicode="Q" d="M56 488q0 63 44.5 107.5t107.5 44.5t107.5 -44.5t44.5 -107.5v-340q0 -68 -50 -113l46 -79q7 -11 3 -24t-15 -20q-11 -6 -24 -2.5t-20 14.5l-45 79q-26 -7 -47 -7q-63 0 -107.5 44.5t-44.5 107.5v340zM208 576q-36 0 -62 -26t-26 -62v-340q0 -37 26 -62.5t62 -25.5 q37 0 62.5 25.5t25.5 62.5v340q0 36 -25.5 62t-62.5 26z" />
<glyph unicode="R" d="M372 428q0 -47 -25.5 -85.5t-68.5 -55.5l92 -248q5 -12 -0.5 -24t-18.5 -17q-12 -5 -24 0.5t-17 18.5l-96 259h-82v-248q0 -14 -9 -23t-23 -9q-13 0 -22.5 9t-9.5 23v576q0 14 9.5 23t22.5 9h120q63 0 107.5 -44.5t44.5 -107.5v-56zM220 340q37 0 62.5 25.5t25.5 62.5v56 q0 36 -25.5 62t-62.5 26h-88v-232h88z" />
<glyph unicode="S" horiz-adv-x="382" d="M240 79q34 25 37 67q5 41 -26 72l-160 164q-48 48 -42 117q5 67 60 110q55 42 122 28q66 -14 101 -73q7 -11 3.5 -24t-15.5 -20q-11 -7 -24 -3t-19 15q-19 34 -59 42t-71 -16q-31 -22 -34 -63q-3 -39 24 -68l160 -165q49 -50 44 -121q-6 -71 -62 -113q-57 -43 -126 -29 t-105 75q-14 28 12 44q11 7 24 3.5t20 -15.5q21 -36 62 -44q42 -8 74 17z" />
<glyph unicode="T" horiz-adv-x="380" d="M320 636q14 0 23 -9t9 -23t-9 -23t-23 -9h-98v-544q0 -14 -9 -23t-23 -9q-13 0 -22.5 9t-9.5 23v544h-98q-13 0 -22.5 9t-9.5 23t9.5 23t22.5 9h260z" />
<glyph unicode="U" horiz-adv-x="424" d="M124 148q0 -37 25.5 -62.5t62.5 -25.5q36 0 62 25.5t26 62.5v460q0 14 9 23t23 9q13 0 22.5 -9t9.5 -23v-460q0 -63 -45 -107.5t-107 -44.5q-63 0 -107.5 44.5t-44.5 107.5v460q0 14 9 23t23 9q13 0 22.5 -9t9.5 -23v-460z" />
<glyph unicode="V" horiz-adv-x="448" d="M34 599q-4 13 2.5 24.5t19.5 15.5q13 3 24.5 -3.5t14.5 -19.5l50 -179q68 -248 80 -289l79 289l50 179q3 13 14.5 19.5t24.5 3.5q13 -4 19.5 -15.5t2.5 -24.5l-160 -580q-5 -23 -30 -23q-24 0 -31 23z" />
<glyph unicode="W" horiz-adv-x="698" d="M38 600q-3 14 3.5 25t19.5 14t24.5 -3.5t14.5 -20.5q7 -33 21.5 -90.5t18.5 -76.5l69 -284l30 128q24 103 38 156l41 167q5 25 31 25q24 0 31 -25q7 -33 21.5 -90.5t18.5 -76.5l69 -284l30 128q24 103 38 156l41 167q3 14 14 20.5t24 3.5t20 -14t4 -25l-140 -580 q-6 -24 -31 -24q-26 0 -31 24l-41 167q-14 53 -37.5 155.5t-30.5 129.5q-55 -222 -69 -285l-40 -167q-6 -24 -31 -24q-26 0 -31 24z" />
<glyph unicode="X" horiz-adv-x="422" d="M47 -1q-12 6 -16.5 18.5t1.5 24.5l143 286l-133 266q-6 11 -1.5 24t16.5 19q11 5 24 1t19 -16l111 -222l111 222q6 12 18.5 16t24.5 -1q12 -6 16 -19t-1 -24l-133 -266l143 -286q5 -12 1 -24.5t-16 -18.5t-24.5 -1.5t-18.5 16.5l-121 242l-121 -242q-6 -12 -19 -16.5 t-24 1.5z" />
<glyph unicode="Y" horiz-adv-x="402" d="M169 320l-137 274q-6 11 -1.5 24t16.5 19q11 5 24 1t19 -16l111 -222l111 222q6 12 18.5 16t24.5 -1q12 -6 16.5 -19t-1.5 -24l-137 -274v-292q0 -14 -9 -23t-23 -9t-23 9t-9 23v292z" />
<glyph unicode="Z" horiz-adv-x="384" d="M40 32q0 6 3 12l98 235l123 293h-192q-14 0 -23 9t-9 23t9 23t23 9h240q18 0 27 -14q5 -12 5 -18q0 -2 -2 -12l-99 -236l-123 -292h192q14 0 23 -9t9 -23t-9 -23t-23 -9h-240q-18 0 -27 14q-5 12 -5 18z" />
<glyph unicode="[" horiz-adv-x="256" d="M100 -80q-14 0 -23 9t-9 23v732q0 14 9 23t23 9h100q14 0 23 -9t9 -23t-9 -23t-23 -9h-68v-668h68q14 0 23 -9t9 -23t-9 -23t-23 -9h-100z" />
<glyph unicode="\" d="M358 -1q5 -13 -0.5 -24.5t-18.5 -16.5q-12 -5 -24 0.5t-17 18.5l-240 660q-5 12 1 24t18 17t24 -1t17 -18z" />
<glyph unicode="]" horiz-adv-x="256" d="M156 716q13 0 22.5 -9t9.5 -23v-732q0 -14 -9.5 -23t-22.5 -9h-100q-14 0 -23 9t-9 23t9 23t23 9h68v668h-68q-14 0 -23 9t-9 23t9 23t23 9h100z" />
<glyph unicode="^" horiz-adv-x="500" d="M71 404q-10 9 -10.5 22t7.5 23l158 180q9 11 24 11t24 -11l158 -180q8 -10 7.5 -23t-10.5 -22q-25 -20 -46 3l-53 61l-80 91l-80 -91l-53 -61q-21 -23 -46 -3z" />
<glyph unicode="_" horiz-adv-x="500" d="M500 -80q13 0 22.5 -9t9.5 -23t-9.5 -23t-22.5 -9h-500q-14 0 -23 9t-9 23t9 23t23 9h500z" />
<glyph unicode="`" horiz-adv-x="500" d="M322 562q10 -9 10.5 -22t-8.5 -23q-9 -11 -22 -11.5t-23 8.5l-100 90q-10 9 -10.5 22t7.5 23q9 10 22.5 11t23.5 -8z" />
<glyph unicode="a" horiz-adv-x="352" d="M230 262v68q0 45 -42 63q-43 18 -74 -15q-9 -9 -22 -9q-12 0 -21 9t-9 21q0 13 9 21q28 28 66 35.5t74 -7.5t57.5 -47t21.5 -71v-298q0 -13 -9 -21.5t-21 -8.5h-100q-54 0 -92 38t-38 92t38 92t92 38h70zM90 132q0 -29 20.5 -49.5t49.5 -20.5h70v140h-70 q-29 0 -49.5 -20.5t-20.5 -49.5z" />
<glyph unicode="b" horiz-adv-x="388" d="M100 2q-13 0 -21.5 8.5t-8.5 21.5v596q0 13 8.5 21.5t21.5 8.5q12 0 21 -8.5t9 -21.5v-174h70q53 0 91.5 -38t38.5 -92v-192q0 -54 -38.5 -92t-91.5 -38h-100zM130 394v-332h70q29 0 49.5 20.5t20.5 49.5v192q0 29 -20.5 49.5t-49.5 20.5h-70z" />
<glyph unicode="c" d="M138 8q-37 15 -58.5 47.5t-21.5 72.5v200q0 40 21.5 72.5t58.5 47.5t75 7.5t67 -35.5q8 -10 8 -22q0 -11 -8 -21q-10 -8 -22 -8q-11 0 -21 8q-32 34 -76 16q-43 -18 -43 -65v-200q0 -47 43 -65t76 15q9 9 21 9q13 0 22 -9q8 -8 8 -21q0 -11 -8 -21q-29 -28 -67 -35.5 t-75 7.5z" />
<glyph unicode="d" horiz-adv-x="388" d="M188 2q-54 0 -92 38t-38 92v192q0 54 38 92t92 38h70v174q0 13 8.5 21.5t21.5 8.5q12 0 21 -8.5t9 -21.5v-596q0 -13 -9 -21.5t-21 -8.5h-100zM188 394q-29 0 -49.5 -20.5t-20.5 -49.5v-192q0 -29 20.5 -49.5t49.5 -20.5h70v332h-70z" />
<glyph unicode="e" horiz-adv-x="368" d="M138 8q-37 15 -58.5 47.5t-21.5 72.5v200q0 54 38 92t92 38t92 -38t38 -92v-100q0 -13 -8.5 -21.5t-21.5 -8.5h-170v-70q0 -47 43 -65t76 15q9 9 21 9q13 0 22 -9q9 -8 9 -21q0 -12 -9 -21q-28 -28 -66.5 -35.5t-75.5 7.5zM188 398q-29 0 -49.5 -20.5t-20.5 -49.5v-70 h140v70q0 29 -20.5 49.5t-49.5 20.5z" />
<glyph unicode="f" horiz-adv-x="296" d="M56 394q-13 0 -21.5 8.5t-8.5 21.5t8.5 21.5t21.5 8.5h50v74q0 54 38 92t92 38q13 0 21.5 -8.5t8.5 -21.5t-8.5 -21.5t-21.5 -8.5q-29 0 -49.5 -20.5t-20.5 -49.5v-74h70q13 0 21.5 -8.5t8.5 -21.5t-8.5 -21.5t-21.5 -8.5h-70v-366q0 -13 -8.5 -21.5t-21.5 -8.5 t-21.5 8.5t-8.5 21.5v366h-50z" />
<glyph unicode="g" horiz-adv-x="384" d="M188 2q-54 0 -92 38t-38 92v192q0 54 38 92t92 38h100q13 0 21.5 -8.5t8.5 -21.5v-496q0 -40 -21.5 -72.5t-58.5 -47.5t-75 -7.5t-67 35.5q-9 9 -9 22q0 12 9 20q9 9 21 9q13 0 22 -9q33 -33 76 -15t43 65v74h-70zM188 394q-29 0 -49.5 -20.5t-20.5 -49.5v-192 q0 -29 20.5 -49.5t49.5 -20.5h70v332h-70z" />
<glyph unicode="h" horiz-adv-x="392" d="M100 -2q-12 0 -21 8.5t-9 21.5v600q0 13 9 21.5t21 8.5q13 0 21.5 -8.5t8.5 -21.5v-174h70q54 0 92 -38t38 -92v-296q0 -13 -8.5 -21.5t-21.5 -8.5q-12 0 -21 8.5t-9 21.5v296q0 29 -20.5 49.5t-49.5 20.5h-70v-366q0 -13 -8.5 -21.5t-21.5 -8.5z" />
<glyph unicode="i" horiz-adv-x="200" d="M100 538q-17 0 -28.5 11.5t-11.5 28.5t11.5 28.5t28.5 11.5t28.5 -11.5t11.5 -28.5t-11.5 -28.5t-28.5 -11.5zM130 28q0 -13 -8.5 -21.5t-21.5 -8.5q-12 0 -21 8.5t-9 21.5v400q0 13 9 21.5t21 8.5q13 0 21.5 -8.5t8.5 -21.5v-400z" />
<glyph unicode="j" horiz-adv-x="208" d="M108 538q-17 0 -28.5 11.5t-11.5 28.5t11.5 28.5t28.5 11.5t28.5 -11.5t11.5 -28.5t-11.5 -28.5t-28.5 -11.5zM8 -202q-12 0 -21 8.5t-9 21.5t9 21.5t21 8.5q29 0 49.5 20.5t20.5 49.5v500q0 13 9 21.5t21 8.5q13 0 21.5 -8.5t8.5 -21.5v-500q0 -54 -38 -92t-92 -38z" />
<glyph unicode="k" horiz-adv-x="380" d="M346 42q14 -26 -12 -40q-11 -6 -23 -3t-18 14l-115 211l-48 -53v-143q0 -13 -9 -21.5t-21 -8.5q-13 0 -21.5 8.5t-8.5 21.5v600q0 13 8.5 21.5t21.5 8.5q12 0 21 -8.5t9 -21.5v-367l167 187q8 9 20.5 9.5t22.5 -7.5q9 -8 9.5 -20.5t-7.5 -21.5l-122 -136z" />
<glyph unicode="l" horiz-adv-x="200" d="M122 2q-55 33 -55 95v531q0 13 9 21.5t21 8.5q13 0 21.5 -8.5t8.5 -21.5v-531q0 -28 25 -43q11 -6 14.5 -18t-3.5 -23q-6 -11 -18 -14t-23 3z" />
<glyph unicode="m" horiz-adv-x="592" d="M130 394v-366q0 -13 -9 -21.5t-21 -8.5q-13 0 -21.5 8.5t-8.5 21.5v396q0 13 8.5 21.5t21.5 8.5h300q53 0 91.5 -38t38.5 -92v-296q0 -13 -9 -21.5t-21 -8.5q-13 0 -21.5 8.5t-8.5 21.5v296q0 29 -20.5 49.5t-49.5 20.5h-70v-366q0 -13 -9 -21.5t-21 -8.5 q-13 0 -21.5 8.5t-8.5 21.5v366h-140z" />
<glyph unicode="n" horiz-adv-x="392" d="M100 -2q-13 0 -21.5 8.5t-8.5 21.5v396q0 13 8.5 21.5t21.5 8.5h100q53 0 91.5 -38t38.5 -92v-296q0 -13 -9 -21.5t-21 -8.5q-13 0 -21.5 8.5t-8.5 21.5v296q0 29 -20.5 49.5t-49.5 20.5h-70v-366q0 -13 -9 -21.5t-21 -8.5z" />
<glyph unicode="o" horiz-adv-x="376" d="M188 -2q-54 0 -92 38t-38 92v200q0 54 38 92t92 38q53 0 91.5 -38t38.5 -92v-200q0 -54 -38.5 -92t-91.5 -38zM188 398q-29 0 -49.5 -20.5t-20.5 -49.5v-200q0 -29 20.5 -49.5t49.5 -20.5t49.5 20.5t20.5 49.5v200q0 29 -20.5 49.5t-49.5 20.5z" />
<glyph unicode="p" horiz-adv-x="388" d="M100 -202q-13 0 -21.5 8.5t-8.5 21.5v596q0 13 8.5 21.5t21.5 8.5h100q53 0 91.5 -38t38.5 -92v-192q0 -54 -38.5 -92t-91.5 -38h-70v-174q0 -13 -9 -21.5t-21 -8.5zM270 324q0 29 -20.5 49.5t-49.5 20.5h-70v-332h70q29 0 49.5 20.5t20.5 49.5v192z" />
<glyph unicode="q" horiz-adv-x="388" d="M188 2q-54 0 -92 38t-38 92v192q0 54 38 92t92 38h100q12 0 21 -8.5t9 -21.5v-596q0 -13 -9 -21.5t-21 -8.5q-13 0 -21.5 8.5t-8.5 21.5v174h-70zM188 394q-29 0 -49.5 -20.5t-20.5 -49.5v-192q0 -29 20.5 -49.5t49.5 -20.5h70v332h-70z" />
<glyph unicode="r" horiz-adv-x="299" d="M100 -2q-13 0 -21.5 8.5t-8.5 21.5v396q0 13 8.5 21.5t21.5 8.5h100q33 0 65 -17q25 -15 11 -41q-6 -11 -18 -14.5t-23 3.5q-17 9 -35 9h-70v-366q0 -13 -8.5 -21.5t-21.5 -8.5z" />
<glyph unicode="s" horiz-adv-x="329" d="M202 75q23 21 20 51q-2 30 -27 48l-93 66q-46 31 -51 90q-5 57 39 96q42 39 99 31q58 -11 86 -59q6 -11 3 -23t-14 -18t-23 -3t-18 14q-14 24 -43 29t-50 -15q-21 -19 -19 -48q1 -28 26 -45l93 -65q47 -35 52 -94t-40 -99q-42 -40 -102 -32q-60 11 -89 61q-6 11 -3 23 t14 18t23 3t18 -14q17 -27 46 -31q29 -5 53 16z" />
<glyph unicode="t" horiz-adv-x="296" d="M56 394q-13 0 -21.5 8.5t-8.5 21.5t8.5 21.5t21.5 8.5h50v174q0 13 8.5 21.5t21.5 8.5t21.5 -8.5t8.5 -21.5v-174h70q13 0 21.5 -8.5t8.5 -21.5t-8.5 -21.5t-21.5 -8.5h-70v-266q0 -29 20.5 -49.5t49.5 -20.5q13 0 21.5 -8.5t8.5 -21.5t-8.5 -21.5t-21.5 -8.5 q-54 0 -92 38t-38 92v266h-50z" />
<glyph unicode="u" horiz-adv-x="392" d="M192 2q-54 0 -92 38t-38 92v296q0 13 8.5 21.5t21.5 8.5t21.5 -8.5t8.5 -21.5v-296q0 -29 20.5 -49.5t49.5 -20.5h70v366q0 13 8.5 21.5t21.5 8.5t21.5 -8.5t8.5 -21.5v-396q0 -13 -8.5 -21.5t-21.5 -8.5h-100z" />
<glyph unicode="v" horiz-adv-x="370" d="M36 419q-3 12 3 23t18 15q11 3 22 -3t15 -17l33 -111l58 -194l58 194l33 111q4 11 15 17t23 3q12 -4 18 -15t2 -23l-120 -400q-7 -21 -29 -21t-29 21z" />
<glyph unicode="w" horiz-adv-x="538" d="M39 421q-3 12 3.5 22.5t18.5 13.5t22.5 -3.5t13.5 -18.5l25 -98l24 -98l22 -87l14 58l18 70q8 32 15 57l24 98q8 23 29 23q24 0 29 -23l25 -98l24 -98l22 -87l14 58l18 70q8 32 15 57l24 98q3 12 13.5 18.5t23.5 3.5q12 -3 18 -13.5t3 -22.5l-100 -400q-5 -23 -29 -23 q-21 0 -29 23l-24 98l-47 185q-2 -9 -19.5 -80.5t-26.5 -104.5l-25 -98q-5 -23 -29 -23q-21 0 -29 23z" />
<glyph unicode="x" horiz-adv-x="360" d="M54 2q-26 14 -12 40l104 190l-100 181q-6 11 -2.5 23t14.5 18t23 2.5t18 -14.5l81 -148l82 148q6 11 18 14.5t23 -2.5t14.5 -18t-2.5 -23l-100 -181l104 -190q14 -26 -12 -40q-11 -6 -23 -3t-18 14l-86 156l-85 -156q-6 -11 -18 -14t-23 3z" />
<glyph unicode="y" horiz-adv-x="369" d="M50 -202q-13 0 -21.5 8.5t-8.5 21.5t8.5 21.5t21.5 8.5q24 0 42 13.5t25 36.5l36 120l-117 391q-4 12 2 23t18 15q12 3 22.5 -3t14.5 -17l91 -305l92 305q3 11 14 17t23 3q12 -4 18 -15t2 -23l-120 -400l-38 -128q-13 -42 -47 -67q-35 -26 -78 -26z" />
<glyph unicode="z" horiz-adv-x="344" d="M42 32q0 6 3 14l75 148l103 200h-151q-13 0 -21.5 8.5t-8.5 21.5t8.5 21.5t21.5 8.5h200q17 0 25 -14q5 -8 5 -16q0 -7 -4 -14l-75 -148q-96 -187 -102 -200h151q12 0 21 -8.5t9 -21.5t-9 -21.5t-21 -8.5h-200q-18 0 -26 14q-4 7 -4 16z" />
<glyph unicode="{" horiz-adv-x="256" d="M160 408q0 -48 -34 -80q34 -32 34 -80v-220q0 -20 14 -34t34 -14q14 0 23 -9t9 -23t-9 -23t-23 -9q-46 0 -79 33t-33 79v220q0 20 -14 34t-34 14q-14 0 -23 9t-9 23t9 23t23 9q20 0 34 14t14 34v200q0 46 33 79t79 33q14 0 23 -9t9 -23t-9 -23t-23 -9q-20 0 -34 -14 t-14 -34v-200z" />
<glyph unicode="|" horiz-adv-x="208" d="M109 860q14 0 23 -9t9 -23v-1000q0 -14 -9 -23t-23 -9t-23 9t-9 23v1000q0 14 9 23t23 9z" />
<glyph unicode="}" horiz-adv-x="256" d="M96 248q0 48 33 80q-33 32 -33 80v200q0 20 -14 34t-34 14q-14 0 -23 9t-9 23t9 23t23 9q46 0 79 -33t33 -79v-200q0 -20 14 -34t34 -14q13 0 22.5 -9t9.5 -23t-9.5 -23t-22.5 -9q-20 0 -34 -14t-14 -34v-220q0 -46 -33 -79t-79 -33q-14 0 -23 9t-9 23t9 23t23 9 q20 0 34 14t14 34v220z" />
<glyph unicode="~" d="M360 303q25 -15 9 -42q-30 -44 -80 -52q-52 -9 -93 22l-12 9q-19 16 -46 11q-25 -4 -39 -26q-7 -11 -19 -13.5t-23 5.5q-25 15 -9 42q29 45 80 52q49 11 93 -22l12 -9q19 -16 46 -11q25 4 39 26q15 24 42 8z" />
<glyph unicode="&#xa2;" d="M196 391q-42 -17 -42 -63v-200q0 -46 42 -63q15 -5 25 -5h1h1q27 0 47 20q9 9 22 9q12 0 23 -9q9 -10 9 -23t-9 -22q-20 -23 -61 -35v-52q0 -14 -9.5 -23t-22.5 -9q-14 0 -23 9t-9 23v52q-10 1 -19 6q-37 16 -59 48.5t-22 73.5v200q0 41 22 73.5t59 48.5q3 1 9 2.5 t10 3.5v52q0 14 9 23t23 9q13 0 22.5 -9t9.5 -23v-52q41 -12 61 -35q9 -9 9 -22t-9 -23q-11 -9 -23 -9q-13 0 -22 9q-20 20 -47 20h-1h-1q-10 0 -25 -5z" />
<glyph unicode="&#xa3;" d="M348 64q14 0 23 -9t9 -23t-9 -23t-23 -9h-280q-26 0 -31 27q-5 26 21 35q26 10 42 32.5t16 50.5v151h-48q-13 0 -22.5 9t-9.5 23t9.5 23t22.5 9h48v148q0 45 27.5 80.5t70.5 46.5q44 12 85 -5t64 -56q6 -11 2.5 -24t-14.5 -20t-24 -3t-20 15q-11 20 -32.5 29t-43.5 3 q-23 -6 -37 -24.5t-14 -41.5v-148h88q14 0 23 -9t9 -23t-9 -23t-23 -9h-88v-151q0 -43 -23 -81h191z" />
<glyph unicode="&#xa5;" d="M176 136h-84q-14 0 -23 9t-9 23t9 23t23 9h84v96h-84q-14 0 -23 9t-9 23t9 23t23 9h64l-117 234q-6 11 -1.5 24t16.5 19q11 5 24 1t19 -16l111 -222l111 222q6 12 18.5 16t24.5 -1q12 -6 16 -19t-1 -24l-117 -234h72q14 0 23 -9t9 -23t-9 -23t-23 -9h-92v-96h92 q14 0 23 -9t9 -23t-9 -23t-23 -9h-92v-108q0 -14 -9 -23t-23 -9t-23 9t-9 23v108z" />
<glyph unicode="&#xa9;" horiz-adv-x="718" d="M347 436q-37 -11 -37 -48v-140q0 -37 37 -48q15 -5 31 1.5t24 21.5q7 11 19 14.5t23 -3.5q11 -6 14.5 -18t-3.5 -23q-19 -33 -53.5 -47.5t-70.5 -4.5t-59 39.5t-23 67.5v140q0 38 23 67.5t59 39.5t70.5 -5t53.5 -47q7 -11 3.5 -23t-14.5 -18q-11 -7 -23 -3.5t-19 14.5 q-8 15 -24 21.5t-31 1.5zM680 318q0 -133 -94 -227t-227 -94q-132 0 -226 94t-94 227t94 227q93 93 226 93q134 0 227 -93q94 -94 94 -227zM359 58q108 0 184 76t76 184q0 107 -76 183t-184 76q-107 0 -183 -76t-76 -183q0 -108 76 -184t183 -76z" />
<glyph unicode="&#xad;" d="M360 288q0 -14 -9.5 -23t-22.5 -9h-240q-14 0 -23 9t-9 23t9 23t23 9h240q13 0 22.5 -9t9.5 -23z" />
<glyph unicode="&#xae;" horiz-adv-x="718" d="M289 137q-12 0 -21 9t-9 22v296q0 13 9 21.5t21 8.5h80q45 0 78 -32.5t33 -77.5q0 -67 -62 -99l58 -102q14 -27 -11 -42q-11 -6 -23.5 -2.5t-18.5 14.5l-69 120h-34v-105q0 -13 -9 -22t-22 -9zM419 384q0 20 -14.5 34.5t-35.5 14.5h-49v-99h49q21 0 35.5 15t14.5 35z M39 318q0 133 94 227q93 93 226 93q134 0 227 -93q94 -94 94 -227t-94 -227t-227 -94q-132 0 -226 94t-94 227zM359 577q-107 0 -183 -76t-76 -183q0 -108 76 -184t183 -76q108 0 184 76t76 184q0 107 -76 183t-184 76z" />
<glyph unicode="&#xb4;" horiz-adv-x="500" d="M279 652q10 9 23 8t22 -11t8.5 -23t-10.5 -22l-100 -90q-10 -9 -23.5 -8.5t-21.5 11.5q-9 10 -8.5 23t10.5 22z" />
<glyph unicode="&#x2000;" horiz-adv-x="430" />
<glyph unicode="&#x2001;" horiz-adv-x="860" />
<glyph unicode="&#x2002;" horiz-adv-x="430" />
<glyph unicode="&#x2003;" horiz-adv-x="860" />
<glyph unicode="&#x2004;" horiz-adv-x="286" />
<glyph unicode="&#x2005;" horiz-adv-x="215" />
<glyph unicode="&#x2006;" horiz-adv-x="143" />
<glyph unicode="&#x2007;" horiz-adv-x="143" />
<glyph unicode="&#x2008;" horiz-adv-x="107" />
<glyph unicode="&#x2009;" horiz-adv-x="172" />
<glyph unicode="&#x200a;" horiz-adv-x="47" />
<glyph unicode="&#x2010;" d="M360 288q0 -14 -9.5 -23t-22.5 -9h-240q-14 0 -23 9t-9 23t9 23t23 9h240q13 0 22.5 -9t9.5 -23z" />
<glyph unicode="&#x2011;" d="M360 288q0 -14 -9.5 -23t-22.5 -9h-240q-14 0 -23 9t-9 23t9 23t23 9h240q13 0 22.5 -9t9.5 -23z" />
<glyph unicode="&#x2013;" horiz-adv-x="500" d="M500 320q14 0 23 -9t9 -23t-9 -23t-23 -9h-500q-13 0 -22.5 9t-9.5 23t9.5 23t22.5 9h500z" />
<glyph unicode="&#x2014;" horiz-adv-x="1000" d="M0 256q-13 0 -22.5 9t-9.5 23t9.5 23t22.5 9h1000q14 0 23 -9t9 -23t-9 -23t-23 -9h-1000z" />
<glyph unicode="&#x2018;" horiz-adv-x="192" d="M123 580q-13 -7 -13 -20v-18h2q12 0 21 -8.5t9 -21.5t-9 -22t-21 -9h-32q-13 0 -22 9t-9 22v48q0 25 14 45.5t37 30.5q11 5 23 0t17 -16q5 -12 0 -23.5t-17 -16.5z" />
<glyph unicode="&#x2019;" horiz-adv-x="192" d="M68 536q13 4 13 20v17h-1q-13 0 -22 9t-9 22t9 21.5t22 8.5h32q12 0 21 -8.5t9 -21.5v-48q0 -25 -14 -45.5t-37 -30.5q-11 -5 -23 0t-17 16q-5 12 0 23.5t17 16.5z" />
<glyph unicode="&#x201c;" horiz-adv-x="371" d="M303 580q-13 -7 -13 -20v-18h1q13 0 22 -8.5t9 -21.5t-9 -22t-22 -9h-32q-13 0 -21.5 9t-8.5 22v48q0 25 13.5 45.5t36.5 30.5q12 5 23.5 0.5t16.5 -16.5t0.5 -23.5t-16.5 -16.5zM123 580q-13 -7 -13 -20v-18h1q13 0 22 -8.5t9 -21.5t-9 -22t-22 -9h-32q-13 0 -21.5 9 t-8.5 22v48q0 25 13.5 45.5t36.5 30.5q12 5 23.5 0.5t16.5 -16.5t0.5 -23.5t-16.5 -16.5z" />
<glyph unicode="&#x201d;" horiz-adv-x="372" d="M248 536q14 5 14 20v17h-2q-13 0 -21.5 9t-8.5 22t8.5 21.5t21.5 8.5h32q13 0 22 -8.5t9 -21.5v-48q0 -25 -14 -45.5t-37 -30.5q-12 -5 -23.5 -0.5t-16.5 16.5t-0.5 23.5t16.5 16.5zM68 536q14 5 14 20v17h-2q-13 0 -21.5 9t-8.5 22t8.5 21.5t21.5 8.5h32q13 0 22 -8.5 t9 -21.5v-48q0 -25 -14 -45.5t-37 -30.5q-12 -5 -23.5 -0.5t-16.5 16.5t-0.5 23.5t16.5 16.5z" />
<glyph unicode="&#x2022;" horiz-adv-x="256" d="M128 381q41 0 70 -29.5t29 -69.5q0 -42 -28.5 -70.5t-70.5 -28.5q-41 0 -69.5 28.5t-28.5 70.5q0 40 29 69.5t69 29.5zM128 241q17 0 29.5 12t12.5 29t-12.5 29t-29.5 12t-29 -12t-12 -29t12 -29t29 -12z" />
<glyph unicode="&#x2026;" horiz-adv-x="576" d="M88 80q18 0 30 -12.5t12 -29.5t-12 -29.5t-30 -12.5q-17 0 -29.5 12.5t-12.5 29.5t12.5 29.5t29.5 12.5zM330 38q0 -17 -12 -29.5t-30 -12.5q-17 0 -29.5 12.5t-12.5 29.5t12.5 29.5t29.5 12.5q18 0 30 -12.5t12 -29.5zM446 38q0 17 12.5 29.5t29.5 12.5q18 0 30 -12.5 t12 -29.5t-12 -29.5t-30 -12.5q-17 0 -29.5 12.5t-12.5 29.5z" />
<glyph unicode="&#x202f;" horiz-adv-x="172" />
<glyph unicode="&#x205f;" horiz-adv-x="215" />
<glyph unicode="&#x20ac;" d="M227 573q-29 -8 -47 -31.5t-18 -53.5v-58h128q13 0 22.5 -9t9.5 -23t-9.5 -23t-22.5 -9h-128v-96h88q13 0 22.5 -9t9.5 -23t-9.5 -23t-22.5 -9h-88v-58q0 -30 18 -53.5t47 -31.5t56.5 3.5t42.5 37.5l10 17q7 12 19.5 15.5t24.5 -3.5q11 -7 14.5 -19.5t-3.5 -24.5l-10 -17 q-26 -45 -73 -65t-98 -6q-50 14 -81 54.5t-31 92.5v58h-48q-14 0 -23 9t-9 23t9 23t23 9h48v96h-48q-14 0 -23 9t-9 23t9 23t23 9h48v58q0 52 31 92.5t81 54.5q51 14 98 -6t73 -65l10 -17q7 -12 3.5 -24.5t-14.5 -19.5q-12 -7 -24.5 -3.5t-19.5 15.5l-10 17 q-15 26 -42.5 37.5t-56.5 3.5z" />
<glyph unicode="&#x2122;" horiz-adv-x="670" d="M402 626q18 -26 27 -38q20 -31 48 -68q28 37 48 68q9 12 27 38q14 17 35 11q21 -7 21 -29v-300q0 -13 -9 -22t-22 -9t-21.5 9t-8.5 22v205q-5 -8 -16 -22.5t-15 -20.5l-14 -20q-10 -13 -25 -13t-25 13l-8 11q-5 7 -6 9l-30 43v-205q0 -13 -9 -22t-22 -9t-21.5 9t-8.5 22 v300q0 23 21 29q20 6 34 -11zM157 277q-13 0 -21.5 9t-8.5 22v265h-70q-13 0 -21.5 9t-8.5 22t8.5 21.5t21.5 8.5h200q13 0 22 -8.5t9 -21.5t-9 -22t-22 -9h-69v-265q0 -13 -9 -22t-22 -9z" />
</font>
</defs>
</svg>
